<?xml version="1.0" encoding="UTF-8" standalone="no"?>
<!DOCTYPE svg PUBLIC "-//W3C//DTD SVG 1.1//EN"
 "http://www.w3.org/Graphics/SVG/1.1/DTD/svg11.dtd">
<!-- Generated by graphviz version 2.47.0 (20210316.0004)
 -->
<!-- Pages: 1 -->
<svg width="209pt" height="737pt"
 viewBox="0.00 0.00 208.55 737.00" xmlns="http://www.w3.org/2000/svg" xmlns:xlink="http://www.w3.org/1999/xlink">
<g id="graph0" class="graph" transform="scale(1 1) rotate(0) translate(4 733)">
<polygon fill="white" stroke="transparent" points="-4,4 -4,-733 204.55,-733 204.55,4 -4,4"/>
<!-- fake0 -->
<g id="node1" class="node">
<title>fake0</title>
</g>
<!-- q0 -->
<g id="node8" class="node">
<title>q0</title>
<ellipse fill="none" stroke="black" cx="30.55" cy="-638" rx="27" ry="18"/>
<text text-anchor="middle" x="30.55" y="-634.3" font-family="Times,serif" font-size="14.00">q0</text>
</g>
<!-- fake0&#45;&gt;q0 -->
<g id="edge1" class="edge">
<title>fake0&#45;&gt;q0</title>
<path fill="none" stroke="black" stroke-width="2" d="M30.55,-692.81C30.55,-684.79 30.55,-675.04 30.55,-666.07"/>
<polygon fill="black" stroke="black" stroke-width="2" points="34.05,-666.03 30.55,-656.03 27.05,-666.03 34.05,-666.03"/>
</g>
<!-- q9 -->
<g id="node2" class="node">
<title>q9</title>
<ellipse fill="none" stroke="black" cx="24.55" cy="-23.5" rx="19.5" ry="19.5"/>
<ellipse fill="none" stroke="black" cx="24.55" cy="-23.5" rx="23.5" ry="23.5"/>
<text text-anchor="middle" x="24.55" y="-19.8" font-family="Times,serif" font-size="14.00">q9</text>
</g>
<!-- q2 -->
<g id="node3" class="node">
<title>q2</title>
<ellipse fill="none" stroke="black" cx="30.55" cy="-464" rx="27" ry="18"/>
<text text-anchor="middle" x="30.55" y="-460.3" font-family="Times,serif" font-size="14.00">q2</text>
</g>
<!-- q2&#45;&gt;q9 -->
<g id="edge9" class="edge">
<title>q2&#45;&gt;q9</title>
<path fill="none" stroke="black" d="M23.59,-446.39C17.14,-429.49 8.55,-402.39 8.55,-378 8.55,-378 8.55,-378 8.55,-115 8.55,-95.31 12.26,-73.58 16.12,-56.34"/>
<polygon fill="black" stroke="black" points="19.61,-56.79 18.5,-46.25 12.79,-55.18 19.61,-56.79"/>
<text text-anchor="middle" x="13.05" y="-242.8" font-family="Times,serif" font-size="14.00">E</text>
</g>
<!-- q3 -->
<g id="node7" class="node">
<title>q3</title>
<ellipse fill="none" stroke="black" cx="76.55" cy="-377" rx="27" ry="18"/>
<text text-anchor="middle" x="76.55" y="-373.3" font-family="Times,serif" font-size="14.00">q3</text>
</g>
<!-- q2&#45;&gt;q3 -->
<g id="edge10" class="edge">
<title>q2&#45;&gt;q3</title>
<path fill="none" stroke="black" d="M39.42,-446.61C46.08,-434.3 55.32,-417.22 62.92,-403.18"/>
<polygon fill="black" stroke="black" points="66.18,-404.51 67.86,-394.05 60.02,-401.18 66.18,-404.51"/>
<text text-anchor="middle" x="60.05" y="-416.8" font-family="Times,serif" font-size="14.00">E</text>
</g>
<!-- q5 -->
<g id="node4" class="node">
<title>q5</title>
<ellipse fill="none" stroke="black" cx="173.55" cy="-203" rx="27" ry="18"/>
<text text-anchor="middle" x="173.55" y="-199.3" font-family="Times,serif" font-size="14.00">q5</text>
</g>
<!-- q8 -->
<g id="node5" class="node">
<title>q8</title>
<ellipse fill="none" stroke="black" cx="71.55" cy="-116" rx="27" ry="18"/>
<text text-anchor="middle" x="71.55" y="-112.3" font-family="Times,serif" font-size="14.00">q8</text>
</g>
<!-- q5&#45;&gt;q8 -->
<g id="edge7" class="edge">
<title>q5&#45;&gt;q8</title>
<path fill="none" stroke="black" d="M157.16,-188.34C140.58,-174.52 114.76,-153 95.8,-137.21"/>
<polygon fill="black" stroke="black" points="97.82,-134.33 87.89,-130.62 93.34,-139.71 97.82,-134.33"/>
<text text-anchor="middle" x="133.05" y="-155.8" font-family="Times,serif" font-size="14.00">E</text>
</g>
<!-- q8&#45;&gt;q9 -->
<g id="edge11" class="edge">
<title>q8&#45;&gt;q9</title>
<path fill="none" stroke="black" d="M63.14,-98.82C56.63,-86.27 47.43,-68.55 39.64,-53.56"/>
<polygon fill="black" stroke="black" points="42.73,-51.92 35.02,-44.65 36.52,-55.14 42.73,-51.92"/>
<text text-anchor="middle" x="56.05" y="-68.8" font-family="Times,serif" font-size="14.00">E</text>
</g>
<!-- q8&#45;&gt;q3 -->
<g id="edge12" class="edge">
<title>q8&#45;&gt;q3</title>
<path fill="none" stroke="black" d="M69.63,-134.02C68.18,-147.75 66.31,-167.59 65.55,-185 63.14,-239.61 61.17,-253.51 65.55,-308 66.64,-321.55 68.93,-336.48 71.14,-348.88"/>
<polygon fill="black" stroke="black" points="67.76,-349.85 73.03,-359.04 74.64,-348.57 67.76,-349.85"/>
<text text-anchor="middle" x="67.05" y="-242.8" font-family="Times,serif" font-size="14.00">E</text>
</g>
<!-- q1 -->
<g id="node6" class="node">
<title>q1</title>
<ellipse fill="none" stroke="black" cx="30.55" cy="-551" rx="27" ry="18"/>
<text text-anchor="middle" x="30.55" y="-547.3" font-family="Times,serif" font-size="14.00">q1</text>
</g>
<!-- q1&#45;&gt;q2 -->
<g id="edge13" class="edge">
<title>q1&#45;&gt;q2</title>
<path fill="none" stroke="black" d="M30.55,-532.8C30.55,-521.16 30.55,-505.54 30.55,-492.23"/>
<polygon fill="black" stroke="black" points="34.05,-492.17 30.55,-482.17 27.05,-492.17 34.05,-492.17"/>
<text text-anchor="middle" x="35.05" y="-503.8" font-family="Times,serif" font-size="14.00">E</text>
</g>
<!-- q6 -->
<g id="node9" class="node">
<title>q6</title>
<ellipse fill="none" stroke="black" cx="101.55" cy="-290" rx="27" ry="18"/>
<text text-anchor="middle" x="101.55" y="-286.3" font-family="Times,serif" font-size="14.00">q6</text>
</g>
<!-- q3&#45;&gt;q6 -->
<g id="edge6" class="edge">
<title>q3&#45;&gt;q6</title>
<path fill="none" stroke="black" d="M81.49,-359.2C84.98,-347.33 89.73,-331.16 93.74,-317.55"/>
<polygon fill="black" stroke="black" points="97.15,-318.34 96.62,-307.75 90.44,-316.36 97.15,-318.34"/>
<text text-anchor="middle" x="94.05" y="-329.8" font-family="Times,serif" font-size="14.00">E</text>
</g>
<!-- q4 -->
<g id="node10" class="node">
<title>q4</title>
<ellipse fill="none" stroke="black" cx="173.55" cy="-290" rx="27" ry="18"/>
<text text-anchor="middle" x="173.55" y="-286.3" font-family="Times,serif" font-size="14.00">q4</text>
</g>
<!-- q3&#45;&gt;q4 -->
<g id="edge5" class="edge">
<title>q3&#45;&gt;q4</title>
<path fill="none" stroke="black" d="M92.56,-361.96C108.24,-348.22 132.3,-327.14 150.13,-311.52"/>
<polygon fill="black" stroke="black" points="152.61,-313.99 157.83,-304.77 148,-308.73 152.61,-313.99"/>
<text text-anchor="middle" x="135.05" y="-329.8" font-family="Times,serif" font-size="14.00">E</text>
</g>
<!-- q0&#45;&gt;q1 -->
<g id="edge2" class="edge">
<title>q0&#45;&gt;q1</title>
<path fill="none" stroke="black" d="M30.55,-619.8C30.55,-608.16 30.55,-592.54 30.55,-579.23"/>
<polygon fill="black" stroke="black" points="34.05,-579.17 30.55,-569.17 27.05,-579.17 34.05,-579.17"/>
<text text-anchor="middle" x="34.05" y="-590.8" font-family="Times,serif" font-size="14.00">a</text>
</g>
<!-- q7 -->
<g id="node11" class="node">
<title>q7</title>
<ellipse fill="none" stroke="black" cx="101.55" cy="-203" rx="27" ry="18"/>
<text text-anchor="middle" x="101.55" y="-199.3" font-family="Times,serif" font-size="14.00">q7</text>
</g>
<!-- q6&#45;&gt;q7 -->
<g id="edge4" class="edge">
<title>q6&#45;&gt;q7</title>
<path fill="none" stroke="black" d="M101.55,-271.8C101.55,-260.16 101.55,-244.54 101.55,-231.23"/>
<polygon fill="black" stroke="black" points="105.05,-231.17 101.55,-221.17 98.05,-231.17 105.05,-231.17"/>
<text text-anchor="middle" x="105.05" y="-242.8" font-family="Times,serif" font-size="14.00">c</text>
</g>
<!-- q4&#45;&gt;q5 -->
<g id="edge3" class="edge">
<title>q4&#45;&gt;q5</title>
<path fill="none" stroke="black" d="M173.55,-271.8C173.55,-260.16 173.55,-244.54 173.55,-231.23"/>
<polygon fill="black" stroke="black" points="177.05,-231.17 173.55,-221.17 170.05,-231.17 177.05,-231.17"/>
<text text-anchor="middle" x="177.05" y="-242.8" font-family="Times,serif" font-size="14.00">b</text>
</g>
<!-- q7&#45;&gt;q8 -->
<g id="edge8" class="edge">
<title>q7&#45;&gt;q8</title>
<path fill="none" stroke="black" d="M95.62,-185.2C91.43,-173.33 85.72,-157.16 80.92,-143.55"/>
<polygon fill="black" stroke="black" points="84.09,-142.02 77.46,-133.75 77.49,-144.35 84.09,-142.02"/>
<text text-anchor="middle" x="92.05" y="-155.8" font-family="Times,serif" font-size="14.00">E</text>
</g>
</g>
</svg>
