<?xml version="1.0" encoding="UTF-8" standalone="no"?>
<!DOCTYPE svg PUBLIC "-//W3C//DTD SVG 1.1//EN"
 "http://www.w3.org/Graphics/SVG/1.1/DTD/svg11.dtd">
<!-- Generated by graphviz version 2.47.0 (20210316.0004)
 -->
<!-- Pages: 1 -->
<svg width="117pt" height="410pt"
 viewBox="0.00 0.00 117.00 410.00" xmlns="http://www.w3.org/2000/svg" xmlns:xlink="http://www.w3.org/1999/xlink">
<g id="graph0" class="graph" transform="scale(1 1) rotate(0) translate(4 406)">
<polygon fill="white" stroke="transparent" points="-4,4 -4,-406 113,-406 113,4 -4,4"/>
<!-- fake0 -->
<g id="node1" class="node">
<title>fake0</title>
</g>
<!-- q0 -->
<g id="node3" class="node">
<title>q0</title>
<ellipse fill="none" stroke="black" cx="48" cy="-311" rx="27" ry="18"/>
<text text-anchor="middle" x="48" y="-307.3" font-family="Times,serif" font-size="14.00">q0</text>
</g>
<!-- fake0&#45;&gt;q0 -->
<g id="edge1" class="edge">
<title>fake0&#45;&gt;q0</title>
<path fill="none" stroke="black" stroke-width="2" d="M48,-365.81C48,-357.79 48,-348.04 48,-339.07"/>
<polygon fill="black" stroke="black" stroke-width="2" points="51.5,-339.03 48,-329.03 44.5,-339.03 51.5,-339.03"/>
</g>
<!-- q4 -->
<g id="node2" class="node">
<title>q4</title>
<ellipse fill="none" stroke="black" cx="43" cy="-23.5" rx="19.5" ry="19.5"/>
<ellipse fill="none" stroke="black" cx="43" cy="-23.5" rx="23.5" ry="23.5"/>
<text text-anchor="middle" x="43" y="-19.8" font-family="Times,serif" font-size="14.00">q4</text>
</g>
<!-- q3 -->
<g id="node4" class="node">
<title>q3</title>
<ellipse fill="none" stroke="black" cx="27" cy="-170" rx="27" ry="18"/>
<text text-anchor="middle" x="27" y="-166.3" font-family="Times,serif" font-size="14.00">q3</text>
</g>
<!-- q0&#45;&gt;q3 -->
<g id="edge3" class="edge">
<title>q0&#45;&gt;q3</title>
<path fill="none" stroke="black" d="M45.42,-292.95C41.85,-269.3 35.35,-226.26 31.1,-198.15"/>
<polygon fill="black" stroke="black" points="34.55,-197.55 29.6,-188.18 27.63,-198.59 34.55,-197.55"/>
<text text-anchor="middle" x="46.5" y="-263.8" font-family="Times,serif" font-size="14.00">E</text>
</g>
<!-- q1 -->
<g id="node5" class="node">
<title>q1</title>
<ellipse fill="none" stroke="black" cx="82" cy="-224" rx="27" ry="18"/>
<text text-anchor="middle" x="82" y="-220.3" font-family="Times,serif" font-size="14.00">q1</text>
</g>
<!-- q0&#45;&gt;q1 -->
<g id="edge4" class="edge">
<title>q0&#45;&gt;q1</title>
<path fill="none" stroke="black" d="M54.72,-293.2C59.54,-281.13 66.14,-264.63 71.64,-250.89"/>
<polygon fill="black" stroke="black" points="74.95,-252.05 75.41,-241.47 68.45,-249.45 74.95,-252.05"/>
<text text-anchor="middle" x="71.5" y="-263.8" font-family="Times,serif" font-size="14.00">E</text>
</g>
<!-- q3&#45;&gt;q4 -->
<g id="edge6" class="edge">
<title>q3&#45;&gt;q4</title>
<path fill="none" stroke="black" d="M28.9,-151.85C31.46,-128.68 36.09,-86.9 39.34,-57.52"/>
<polygon fill="black" stroke="black" points="42.85,-57.64 40.47,-47.32 35.89,-56.87 42.85,-57.64"/>
<text text-anchor="middle" x="39.5" y="-112.3" font-family="Times,serif" font-size="14.00">E</text>
</g>
<!-- q2 -->
<g id="node6" class="node">
<title>q2</title>
<ellipse fill="none" stroke="black" cx="81" cy="-116" rx="27" ry="18"/>
<text text-anchor="middle" x="81" y="-112.3" font-family="Times,serif" font-size="14.00">q2</text>
</g>
<!-- q1&#45;&gt;q2 -->
<g id="edge2" class="edge">
<title>q1&#45;&gt;q2</title>
<path fill="none" stroke="black" d="M81.84,-205.97C81.68,-189.37 81.44,-163.88 81.26,-144.43"/>
<polygon fill="black" stroke="black" points="84.76,-144.3 81.16,-134.34 77.76,-144.37 84.76,-144.3"/>
<text text-anchor="middle" x="84.5" y="-166.3" font-family="Times,serif" font-size="14.00">a</text>
</g>
<!-- q2&#45;&gt;q4 -->
<g id="edge5" class="edge">
<title>q2&#45;&gt;q4</title>
<path fill="none" stroke="black" d="M74.03,-98.4C68.95,-86.29 61.91,-69.54 55.83,-55.04"/>
<polygon fill="black" stroke="black" points="58.9,-53.32 51.8,-45.45 52.44,-56.03 58.9,-53.32"/>
<text text-anchor="middle" x="69.5" y="-68.8" font-family="Times,serif" font-size="14.00">E</text>
</g>
</g>
</svg>
