<?xml version="1.0" encoding="UTF-8" standalone="no"?>
<!DOCTYPE svg PUBLIC "-//W3C//DTD SVG 1.1//EN"
 "http://www.w3.org/Graphics/SVG/1.1/DTD/svg11.dtd">
<!-- Generated by graphviz version 2.47.0 (20210316.0004)
 -->
<!-- Pages: 1 -->
<svg width="164pt" height="911pt"
 viewBox="0.00 0.00 163.88 911.00" xmlns="http://www.w3.org/2000/svg" xmlns:xlink="http://www.w3.org/1999/xlink">
<g id="graph0" class="graph" transform="scale(1 1) rotate(0) translate(4 907)">
<polygon fill="white" stroke="transparent" points="-4,4 -4,-907 159.88,-907 159.88,4 -4,4"/>
<!-- fake0 -->
<g id="node1" class="node">
<title>fake0</title>
</g>
<!-- q0 -->
<g id="node5" class="node">
<title>q0</title>
<ellipse fill="none" stroke="black" cx="119.88" cy="-812" rx="27" ry="18"/>
<text text-anchor="middle" x="119.88" y="-808.3" font-family="Times,serif" font-size="14.00">q0</text>
</g>
<!-- fake0&#45;&gt;q0 -->
<g id="edge1" class="edge">
<title>fake0&#45;&gt;q0</title>
<path fill="none" stroke="black" stroke-width="2" d="M119.88,-866.81C119.88,-858.79 119.88,-849.04 119.88,-840.07"/>
<polygon fill="black" stroke="black" stroke-width="2" points="123.38,-840.03 119.88,-830.03 116.38,-840.03 123.38,-840.03"/>
</g>
<!-- q1 -->
<g id="node2" class="node">
<title>q1</title>
<ellipse fill="none" stroke="black" cx="91.88" cy="-725" rx="27" ry="18"/>
<text text-anchor="middle" x="91.88" y="-721.3" font-family="Times,serif" font-size="14.00">q1</text>
</g>
<!-- q2 -->
<g id="node11" class="node">
<title>q2</title>
<ellipse fill="none" stroke="black" cx="45.88" cy="-638" rx="27" ry="18"/>
<text text-anchor="middle" x="45.88" y="-634.3" font-family="Times,serif" font-size="14.00">q2</text>
</g>
<!-- q1&#45;&gt;q2 -->
<g id="edge2" class="edge">
<title>q1&#45;&gt;q2</title>
<path fill="none" stroke="black" d="M83.01,-707.61C76.35,-695.3 67.11,-678.22 59.51,-664.18"/>
<polygon fill="black" stroke="black" points="62.41,-662.18 54.57,-655.05 56.25,-665.51 62.41,-662.18"/>
<text text-anchor="middle" x="74.38" y="-677.8" font-family="Times,serif" font-size="14.00">a</text>
</g>
<!-- q6 -->
<g id="node3" class="node">
<title>q6</title>
<ellipse fill="none" stroke="black" cx="45.88" cy="-290" rx="27" ry="18"/>
<text text-anchor="middle" x="45.88" y="-286.3" font-family="Times,serif" font-size="14.00">q6</text>
</g>
<!-- q7 -->
<g id="node9" class="node">
<title>q7</title>
<ellipse fill="none" stroke="black" cx="45.88" cy="-203" rx="27" ry="18"/>
<text text-anchor="middle" x="45.88" y="-199.3" font-family="Times,serif" font-size="14.00">q7</text>
</g>
<!-- q6&#45;&gt;q7 -->
<g id="edge10" class="edge">
<title>q6&#45;&gt;q7</title>
<path fill="none" stroke="black" d="M45.88,-271.8C45.88,-260.16 45.88,-244.54 45.88,-231.23"/>
<polygon fill="black" stroke="black" points="49.38,-231.17 45.88,-221.17 42.38,-231.17 49.38,-231.17"/>
<text text-anchor="middle" x="50.38" y="-242.8" font-family="Times,serif" font-size="14.00">E</text>
</g>
<!-- q5 -->
<g id="node4" class="node">
<title>q5</title>
<ellipse fill="none" stroke="black" cx="45.88" cy="-377" rx="27" ry="18"/>
<text text-anchor="middle" x="45.88" y="-373.3" font-family="Times,serif" font-size="14.00">q5</text>
</g>
<!-- q5&#45;&gt;q6 -->
<g id="edge6" class="edge">
<title>q5&#45;&gt;q6</title>
<path fill="none" stroke="black" d="M45.88,-358.8C45.88,-347.16 45.88,-331.54 45.88,-318.23"/>
<polygon fill="black" stroke="black" points="49.38,-318.17 45.88,-308.17 42.38,-318.17 49.38,-318.17"/>
<text text-anchor="middle" x="50.38" y="-329.8" font-family="Times,serif" font-size="14.00">E</text>
</g>
<!-- q4 -->
<g id="node6" class="node">
<title>q4</title>
<ellipse fill="none" stroke="black" cx="45.88" cy="-464" rx="27" ry="18"/>
<text text-anchor="middle" x="45.88" y="-460.3" font-family="Times,serif" font-size="14.00">q4</text>
</g>
<!-- q5&#45;&gt;q4 -->
<g id="edge7" class="edge">
<title>q5&#45;&gt;q4</title>
<path fill="none" stroke="black" d="M45.88,-395.17C45.88,-406.8 45.88,-422.42 45.88,-435.73"/>
<polygon fill="black" stroke="black" points="42.38,-435.8 45.88,-445.8 49.38,-435.8 42.38,-435.8"/>
<text text-anchor="middle" x="50.38" y="-416.8" font-family="Times,serif" font-size="14.00">E</text>
</g>
<!-- q0&#45;&gt;q1 -->
<g id="edge11" class="edge">
<title>q0&#45;&gt;q1</title>
<path fill="none" stroke="black" d="M114.35,-794.2C110.44,-782.33 105.12,-766.16 100.63,-752.55"/>
<polygon fill="black" stroke="black" points="103.86,-751.16 97.4,-742.75 97.21,-753.35 103.86,-751.16"/>
<text text-anchor="middle" x="111.38" y="-764.8" font-family="Times,serif" font-size="14.00">E</text>
</g>
<!-- q9 -->
<g id="node7" class="node">
<title>q9</title>
<ellipse fill="none" stroke="black" cx="119.88" cy="-23.5" rx="19.5" ry="19.5"/>
<ellipse fill="none" stroke="black" cx="119.88" cy="-23.5" rx="23.5" ry="23.5"/>
<text text-anchor="middle" x="119.88" y="-19.8" font-family="Times,serif" font-size="14.00">q9</text>
</g>
<!-- q0&#45;&gt;q9 -->
<g id="edge12" class="edge">
<title>q0&#45;&gt;q9</title>
<path fill="none" stroke="black" d="M128.28,-794.87C136.2,-778.12 146.88,-750.93 146.88,-726 146.88,-726 146.88,-726 146.88,-115 146.88,-94.3 140.32,-72.01 133.66,-54.73"/>
<polygon fill="black" stroke="black" points="136.79,-53.13 129.78,-45.19 130.31,-55.77 136.79,-53.13"/>
<text text-anchor="middle" x="151.38" y="-416.8" font-family="Times,serif" font-size="14.00">E</text>
</g>
<!-- q4&#45;&gt;q5 -->
<g id="edge3" class="edge">
<title>q4&#45;&gt;q5</title>
<path fill="none" stroke="black" d="M39,-446.55C36.92,-440.79 34.92,-434.21 33.88,-428 32.59,-420.25 33.61,-411.92 35.49,-404.32"/>
<polygon fill="black" stroke="black" points="38.91,-405.13 38.47,-394.54 32.21,-403.09 38.91,-405.13"/>
<text text-anchor="middle" x="37.38" y="-416.8" font-family="Times,serif" font-size="14.00">b</text>
</g>
<!-- q3 -->
<g id="node8" class="node">
<title>q3</title>
<ellipse fill="none" stroke="black" cx="45.88" cy="-551" rx="27" ry="18"/>
<text text-anchor="middle" x="45.88" y="-547.3" font-family="Times,serif" font-size="14.00">q3</text>
</g>
<!-- q3&#45;&gt;q6 -->
<g id="edge4" class="edge">
<title>q3&#45;&gt;q6</title>
<path fill="none" stroke="black" d="M34.79,-534.41C26.09,-521.18 14.68,-501.31 9.88,-482 -3.29,-428.94 -3.29,-412.05 9.88,-359 13.74,-343.45 21.88,-327.55 29.45,-315.04"/>
<polygon fill="black" stroke="black" points="32.41,-316.91 34.79,-306.58 26.49,-313.17 32.41,-316.91"/>
<text text-anchor="middle" x="5.38" y="-416.8" font-family="Times,serif" font-size="14.00">E</text>
</g>
<!-- q3&#45;&gt;q4 -->
<g id="edge5" class="edge">
<title>q3&#45;&gt;q4</title>
<path fill="none" stroke="black" d="M45.88,-532.8C45.88,-521.16 45.88,-505.54 45.88,-492.23"/>
<polygon fill="black" stroke="black" points="49.38,-492.17 45.88,-482.17 42.38,-492.17 49.38,-492.17"/>
<text text-anchor="middle" x="50.38" y="-503.8" font-family="Times,serif" font-size="14.00">E</text>
</g>
<!-- q8 -->
<g id="node10" class="node">
<title>q8</title>
<ellipse fill="none" stroke="black" cx="91.88" cy="-116" rx="27" ry="18"/>
<text text-anchor="middle" x="91.88" y="-112.3" font-family="Times,serif" font-size="14.00">q8</text>
</g>
<!-- q7&#45;&gt;q8 -->
<g id="edge9" class="edge">
<title>q7&#45;&gt;q8</title>
<path fill="none" stroke="black" d="M54.75,-185.61C61.41,-173.3 70.66,-156.22 78.25,-142.18"/>
<polygon fill="black" stroke="black" points="81.52,-143.51 83.2,-133.05 75.36,-140.18 81.52,-143.51"/>
<text text-anchor="middle" x="74.38" y="-155.8" font-family="Times,serif" font-size="14.00">a</text>
</g>
<!-- q8&#45;&gt;q1 -->
<g id="edge13" class="edge">
<title>q8&#45;&gt;q1</title>
<path fill="none" stroke="black" d="M94.78,-134.2C97.41,-151.33 100.88,-178.4 100.88,-202 100.88,-639 100.88,-639 100.88,-639 100.88,-658.35 98.55,-680.05 96.26,-696.68"/>
<polygon fill="black" stroke="black" points="92.76,-696.4 94.78,-706.8 99.69,-697.41 92.76,-696.4"/>
<text text-anchor="middle" x="105.38" y="-416.8" font-family="Times,serif" font-size="14.00">E</text>
</g>
<!-- q8&#45;&gt;q9 -->
<g id="edge14" class="edge">
<title>q8&#45;&gt;q9</title>
<path fill="none" stroke="black" d="M97.15,-97.97C100.8,-86.19 105.76,-70.16 110.11,-56.07"/>
<polygon fill="black" stroke="black" points="113.54,-56.84 113.15,-46.25 106.85,-54.77 113.54,-56.84"/>
<text text-anchor="middle" x="110.38" y="-68.8" font-family="Times,serif" font-size="14.00">E</text>
</g>
<!-- q2&#45;&gt;q3 -->
<g id="edge8" class="edge">
<title>q2&#45;&gt;q3</title>
<path fill="none" stroke="black" d="M45.88,-619.8C45.88,-608.16 45.88,-592.54 45.88,-579.23"/>
<polygon fill="black" stroke="black" points="49.38,-579.17 45.88,-569.17 42.38,-579.17 49.38,-579.17"/>
<text text-anchor="middle" x="50.38" y="-590.8" font-family="Times,serif" font-size="14.00">E</text>
</g>
</g>
</svg>
