<?xml version="1.0" encoding="UTF-8" standalone="no"?>
<!DOCTYPE svg PUBLIC "-//W3C//DTD SVG 1.1//EN"
 "http://www.w3.org/Graphics/SVG/1.1/DTD/svg11.dtd">
<!-- Generated by graphviz version 2.43.0 (0)
 -->
<!-- Title: %3 Pages: 1 -->
<svg width="193pt" height="917pt"
 viewBox="0.00 0.00 193.00 917.50" xmlns="http://www.w3.org/2000/svg" xmlns:xlink="http://www.w3.org/1999/xlink">
<g id="graph0" class="graph" transform="scale(1 1) rotate(0) translate(4 913.5)">
<title>%3</title>
<polygon fill="white" stroke="transparent" points="-4,4 -4,-913.5 189,-913.5 189,4 -4,4"/>
<!-- fake0 -->
<g id="node1" class="node">
<title>fake0</title>
</g>
<!-- q0 -->
<g id="node8" class="node">
<title>q0</title>
<ellipse fill="none" stroke="black" cx="147" cy="-818.5" rx="27" ry="18"/>
<text text-anchor="middle" x="147" y="-814.8" font-family="Times,serif" font-size="14.00">q0</text>
</g>
<!-- fake0&#45;&gt;q0 -->
<g id="edge1" class="edge">
<title>fake0&#45;&gt;q0</title>
<path fill="none" stroke="black" stroke-width="2" d="M147,-873.31C147,-865.29 147,-855.54 147,-846.57"/>
<polygon fill="black" stroke="black" stroke-width="2" points="150.5,-846.52 147,-836.52 143.5,-846.52 150.5,-846.52"/>
</g>
<!-- q7 -->
<g id="node2" class="node">
<title>q7</title>
<ellipse fill="none" stroke="black" cx="73" cy="-209.5" rx="27" ry="18"/>
<text text-anchor="middle" x="73" y="-205.8" font-family="Times,serif" font-size="14.00">q7</text>
</g>
<!-- q8 -->
<g id="node9" class="node">
<title>q8</title>
<ellipse fill="none" stroke="black" cx="119" cy="-122.5" rx="27" ry="18"/>
<text text-anchor="middle" x="119" y="-118.8" font-family="Times,serif" font-size="14.00">q8</text>
</g>
<!-- q7&#45;&gt;q8 -->
<g id="edge9" class="edge">
<title>q7&#45;&gt;q8</title>
<path fill="none" stroke="black" d="M81.87,-192.11C88.53,-179.8 97.77,-162.72 105.37,-148.68"/>
<polygon fill="black" stroke="black" points="108.63,-150.01 110.31,-139.55 102.48,-146.68 108.63,-150.01"/>
<text text-anchor="middle" x="102.5" y="-162.3" font-family="Times,serif" font-size="14.00">a</text>
</g>
<!-- q4 -->
<g id="node3" class="node">
<title>q4</title>
<ellipse fill="none" stroke="black" cx="27" cy="-470.5" rx="27" ry="18"/>
<text text-anchor="middle" x="27" y="-466.8" font-family="Times,serif" font-size="14.00">q4</text>
</g>
<!-- q5 -->
<g id="node5" class="node">
<title>q5</title>
<ellipse fill="none" stroke="black" cx="27" cy="-383.5" rx="27" ry="18"/>
<text text-anchor="middle" x="27" y="-379.8" font-family="Times,serif" font-size="14.00">q5</text>
</g>
<!-- q4&#45;&gt;q5 -->
<g id="edge3" class="edge">
<title>q4&#45;&gt;q5</title>
<path fill="none" stroke="black" d="M14.66,-454.1C8.37,-444.39 2.68,-431.47 6,-419.5 7,-415.87 8.5,-412.24 10.23,-408.76"/>
<polygon fill="black" stroke="black" points="13.29,-410.46 15.22,-400.04 7.22,-406.98 13.29,-410.46"/>
<text text-anchor="middle" x="11" y="-423.3" font-family="Times,serif" font-size="14.00">b</text>
</g>
<!-- q1 -->
<g id="node4" class="node">
<title>q1</title>
<ellipse fill="none" stroke="black" cx="119" cy="-731.5" rx="27" ry="18"/>
<text text-anchor="middle" x="119" y="-727.8" font-family="Times,serif" font-size="14.00">q1</text>
</g>
<!-- q2 -->
<g id="node11" class="node">
<title>q2</title>
<ellipse fill="none" stroke="black" cx="73" cy="-644.5" rx="27" ry="18"/>
<text text-anchor="middle" x="73" y="-640.8" font-family="Times,serif" font-size="14.00">q2</text>
</g>
<!-- q1&#45;&gt;q2 -->
<g id="edge2" class="edge">
<title>q1&#45;&gt;q2</title>
<path fill="none" stroke="black" d="M110.13,-714.11C103.47,-701.8 94.23,-684.72 86.63,-670.68"/>
<polygon fill="black" stroke="black" points="89.52,-668.68 81.69,-661.55 83.37,-672.01 89.52,-668.68"/>
<text text-anchor="middle" x="102.5" y="-684.3" font-family="Times,serif" font-size="14.00">a</text>
</g>
<!-- q5&#45;&gt;q4 -->
<g id="edge6" class="edge">
<title>q5&#45;&gt;q4</title>
<path fill="none" stroke="black" d="M27,-401.67C27,-413.3 27,-428.92 27,-442.23"/>
<polygon fill="black" stroke="black" points="23.5,-442.29 27,-452.29 30.5,-442.29 23.5,-442.29"/>
<text text-anchor="middle" x="32.5" y="-423.3" font-family="Times,serif" font-size="14.00">E</text>
</g>
<!-- q6 -->
<g id="node6" class="node">
<title>q6</title>
<ellipse fill="none" stroke="black" cx="73" cy="-296.5" rx="27" ry="18"/>
<text text-anchor="middle" x="73" y="-292.8" font-family="Times,serif" font-size="14.00">q6</text>
</g>
<!-- q5&#45;&gt;q6 -->
<g id="edge7" class="edge">
<title>q5&#45;&gt;q6</title>
<path fill="none" stroke="black" d="M35.87,-366.11C42.53,-353.8 51.77,-336.72 59.37,-322.68"/>
<polygon fill="black" stroke="black" points="62.63,-324.01 64.31,-313.55 56.48,-320.68 62.63,-324.01"/>
<text text-anchor="middle" x="57.5" y="-336.3" font-family="Times,serif" font-size="14.00">E</text>
</g>
<!-- q6&#45;&gt;q7 -->
<g id="edge10" class="edge">
<title>q6&#45;&gt;q7</title>
<path fill="none" stroke="black" d="M73,-278.29C73,-266.66 73,-251.04 73,-237.73"/>
<polygon fill="black" stroke="black" points="76.5,-237.67 73,-227.67 69.5,-237.67 76.5,-237.67"/>
<text text-anchor="middle" x="78.5" y="-249.3" font-family="Times,serif" font-size="14.00">E</text>
</g>
<!-- q3 -->
<g id="node7" class="node">
<title>q3</title>
<ellipse fill="none" stroke="black" cx="73" cy="-557.5" rx="27" ry="18"/>
<text text-anchor="middle" x="73" y="-553.8" font-family="Times,serif" font-size="14.00">q3</text>
</g>
<!-- q3&#45;&gt;q4 -->
<g id="edge4" class="edge">
<title>q3&#45;&gt;q4</title>
<path fill="none" stroke="black" d="M64.13,-540.11C57.47,-527.8 48.23,-510.72 40.63,-496.68"/>
<polygon fill="black" stroke="black" points="43.52,-494.68 35.69,-487.55 37.37,-498.01 43.52,-494.68"/>
<text text-anchor="middle" x="57.5" y="-510.3" font-family="Times,serif" font-size="14.00">E</text>
</g>
<!-- q3&#45;&gt;q6 -->
<g id="edge5" class="edge">
<title>q3&#45;&gt;q6</title>
<path fill="none" stroke="black" d="M73,-539.1C73,-494.96 73,-378.32 73,-324.91"/>
<polygon fill="black" stroke="black" points="76.5,-324.82 73,-314.82 69.5,-324.82 76.5,-324.82"/>
<text text-anchor="middle" x="78.5" y="-423.3" font-family="Times,serif" font-size="14.00">E</text>
</g>
<!-- q0&#45;&gt;q1 -->
<g id="edge12" class="edge">
<title>q0&#45;&gt;q1</title>
<path fill="none" stroke="black" d="M141.47,-800.7C137.56,-788.83 132.23,-772.66 127.75,-759.05"/>
<polygon fill="black" stroke="black" points="130.97,-757.66 124.52,-749.25 124.32,-759.85 130.97,-757.66"/>
<text text-anchor="middle" x="139.5" y="-771.3" font-family="Times,serif" font-size="14.00">E</text>
</g>
<!-- q9 -->
<g id="node10" class="node">
<title>q9</title>
<ellipse fill="none" stroke="black" cx="147" cy="-26.75" rx="22.96" ry="22.96"/>
<ellipse fill="none" stroke="black" cx="147" cy="-26.75" rx="27" ry="27"/>
<text text-anchor="middle" x="147" y="-23.05" font-family="Times,serif" font-size="14.00">q9</text>
</g>
<!-- q0&#45;&gt;q9 -->
<g id="edge11" class="edge">
<title>q0&#45;&gt;q9</title>
<path fill="none" stroke="black" d="M155.39,-801.37C163.32,-784.62 174,-757.42 174,-732.5 174,-732.5 174,-732.5 174,-121.5 174,-100.97 167.95,-78.86 161.57,-61.27"/>
<polygon fill="black" stroke="black" points="164.67,-59.57 157.83,-51.49 158.13,-62.08 164.67,-59.57"/>
<text text-anchor="middle" x="179.5" y="-423.3" font-family="Times,serif" font-size="14.00">E</text>
</g>
<!-- q8&#45;&gt;q1 -->
<g id="edge14" class="edge">
<title>q8&#45;&gt;q1</title>
<path fill="none" stroke="black" d="M121.9,-140.7C124.53,-157.83 128,-184.9 128,-208.5 128,-645.5 128,-645.5 128,-645.5 128,-664.85 125.66,-686.55 123.37,-703.18"/>
<polygon fill="black" stroke="black" points="119.88,-702.9 121.9,-713.3 126.8,-703.91 119.88,-702.9"/>
<text text-anchor="middle" x="133.5" y="-423.3" font-family="Times,serif" font-size="14.00">E</text>
</g>
<!-- q8&#45;&gt;q9 -->
<g id="edge13" class="edge">
<title>q8&#45;&gt;q9</title>
<path fill="none" stroke="black" d="M124.01,-104.74C127.53,-92.93 132.38,-76.69 136.72,-62.18"/>
<polygon fill="black" stroke="black" points="140.11,-63.06 139.61,-52.47 133.4,-61.06 140.11,-63.06"/>
<text text-anchor="middle" x="138.5" y="-75.3" font-family="Times,serif" font-size="14.00">E</text>
</g>
<!-- q2&#45;&gt;q3 -->
<g id="edge8" class="edge">
<title>q2&#45;&gt;q3</title>
<path fill="none" stroke="black" d="M73,-626.29C73,-614.66 73,-599.04 73,-585.73"/>
<polygon fill="black" stroke="black" points="76.5,-585.67 73,-575.67 69.5,-585.67 76.5,-585.67"/>
<text text-anchor="middle" x="78.5" y="-597.3" font-family="Times,serif" font-size="14.00">E</text>
</g>
</g>
</svg>
