<?xml version="1.0" encoding="UTF-8" standalone="no"?>
<!DOCTYPE svg PUBLIC "-//W3C//DTD SVG 1.1//EN"
 "http://www.w3.org/Graphics/SVG/1.1/DTD/svg11.dtd">
<!-- Generated by graphviz version 2.47.0 (20210316.0004)
 -->
<!-- Pages: 1 -->
<svg width="188pt" height="484pt"
 viewBox="0.00 0.00 188.00 484.39" xmlns="http://www.w3.org/2000/svg" xmlns:xlink="http://www.w3.org/1999/xlink">
<g id="graph0" class="graph" transform="scale(1 1) rotate(0) translate(4 480.39)">
<polygon fill="white" stroke="transparent" points="-4,4 -4,-480.39 184,-480.39 184,4 -4,4"/>
<!-- fake -->
<g id="node1" class="node">
<title>fake</title>
</g>
<!-- s0 -->
<g id="node2" class="node">
<title>s0</title>
<ellipse fill="none" stroke="black" cx="58" cy="-385.39" rx="27" ry="18"/>
<text text-anchor="middle" x="58" y="-381.69" font-family="Times,serif" font-size="14.00">s0</text>
</g>
<!-- fake&#45;&gt;s0 -->
<g id="edge1" class="edge">
<title>fake&#45;&gt;s0</title>
<path fill="none" stroke="black" stroke-width="2" d="M58,-440.21C58,-432.18 58,-422.44 58,-413.46"/>
<polygon fill="black" stroke="black" stroke-width="2" points="61.5,-413.42 58,-403.42 54.5,-413.42 61.5,-413.42"/>
</g>
<!-- s1 -->
<g id="node4" class="node">
<title>s1</title>
<ellipse fill="none" stroke="black" cx="78" cy="-18" rx="27" ry="18"/>
<text text-anchor="middle" x="78" y="-14.3" font-family="Times,serif" font-size="14.00">s1</text>
</g>
<!-- s0&#45;&gt;s1 -->
<g id="edge12" class="edge">
<title>s0&#45;&gt;s1</title>
<path fill="none" stroke="black" d="M41.84,-370.61C24.68,-354.34 0,-325.55 0,-294.54 0,-294.54 0,-294.54 0,-108.85 0,-77.66 27.12,-52.02 49.38,-36.22"/>
<polygon fill="black" stroke="black" points="51.58,-38.95 57.91,-30.46 47.67,-33.15 51.58,-38.95"/>
<text text-anchor="middle" x="3.5" y="-198" font-family="Times,serif" font-size="14.00">c</text>
</g>
<!-- s2 -->
<g id="node5" class="node">
<title>s2</title>
<ellipse fill="none" stroke="black" cx="64" cy="-201.7" rx="27" ry="18"/>
<text text-anchor="middle" x="64" y="-198" font-family="Times,serif" font-size="14.00">s2</text>
</g>
<!-- s0&#45;&gt;s2 -->
<g id="edge2" class="edge">
<title>s0&#45;&gt;s2</title>
<path fill="none" stroke="black" d="M58.56,-367.3C59.61,-335.78 61.83,-268.26 63.09,-230.22"/>
<polygon fill="black" stroke="black" points="66.6,-229.99 63.43,-219.88 59.6,-229.76 66.6,-229.99"/>
<text text-anchor="middle" x="64.5" y="-289.84" font-family="Times,serif" font-size="14.00">b</text>
</g>
<!-- s4 -->
<g id="node6" class="node">
<title>s4</title>
<ellipse fill="none" stroke="black" cx="106" cy="-293.54" rx="18.72" ry="18.72"/>
<ellipse fill="none" stroke="black" cx="106" cy="-293.54" rx="22.7" ry="22.7"/>
<text text-anchor="middle" x="106" y="-289.84" font-family="Times,serif" font-size="14.00">s4</text>
</g>
<!-- s0&#45;&gt;s4 -->
<g id="edge13" class="edge">
<title>s0&#45;&gt;s4</title>
<path fill="none" stroke="black" d="M66.8,-367.91C73.46,-355.45 82.78,-338.01 90.65,-323.27"/>
<polygon fill="black" stroke="black" points="93.96,-324.52 95.58,-314.05 87.78,-321.22 93.96,-324.52"/>
<text text-anchor="middle" x="86.5" y="-338.19" font-family="Times,serif" font-size="14.00">a</text>
</g>
<!-- s3 -->
<g id="node3" class="node">
<title>s3</title>
<ellipse fill="none" stroke="black" cx="56" cy="-109.85" rx="18.72" ry="18.72"/>
<ellipse fill="none" stroke="black" cx="56" cy="-109.85" rx="22.7" ry="22.7"/>
<text text-anchor="middle" x="56" y="-106.15" font-family="Times,serif" font-size="14.00">s3</text>
</g>
<!-- s3&#45;&gt;s1 -->
<g id="edge5" class="edge">
<title>s3&#45;&gt;s1</title>
<path fill="none" stroke="black" d="M42.47,-91.24C35.82,-80.32 30.33,-66.12 36,-54 39.08,-47.42 44.08,-41.64 49.57,-36.78"/>
<polygon fill="black" stroke="black" points="52.1,-39.24 57.8,-30.31 47.78,-33.74 52.1,-39.24"/>
<text text-anchor="middle" x="39.5" y="-57.8" font-family="Times,serif" font-size="14.00">b</text>
</g>
<!-- s3&#45;&gt;s1 -->
<g id="edge9" class="edge">
<title>s3&#45;&gt;s1</title>
<path fill="none" stroke="black" d="M59.2,-87.06C60.89,-76.93 63.19,-64.77 66,-54 66.75,-51.14 67.61,-48.19 68.53,-45.26"/>
<polygon fill="black" stroke="black" points="71.91,-46.17 71.75,-35.58 65.27,-43.96 71.91,-46.17"/>
<text text-anchor="middle" x="69.5" y="-57.8" font-family="Times,serif" font-size="14.00">c</text>
</g>
<!-- s3&#45;&gt;s1 -->
<g id="edge10" class="edge">
<title>s3&#45;&gt;s1</title>
<path fill="none" stroke="black" d="M64.67,-88.44C67.02,-82.29 69.36,-75.45 71,-69 72.85,-61.73 74.25,-53.72 75.29,-46.29"/>
<polygon fill="black" stroke="black" points="78.77,-46.66 76.53,-36.31 71.82,-45.8 78.77,-46.66"/>
<text text-anchor="middle" x="77.5" y="-57.8" font-family="Times,serif" font-size="14.00">a</text>
</g>
<!-- s1&#45;&gt;s1 -->
<g id="edge6" class="edge">
<title>s1&#45;&gt;s1</title>
<path fill="none" stroke="black" d="M104.79,-20.62C114.78,-20.71 123,-19.83 123,-18 123,-16.85 119.79,-16.08 114.94,-15.69"/>
<polygon fill="black" stroke="black" points="114.9,-12.19 104.79,-15.38 114.68,-19.18 114.9,-12.19"/>
<text text-anchor="middle" x="126.5" y="-14.3" font-family="Times,serif" font-size="14.00">b</text>
</g>
<!-- s1&#45;&gt;s1 -->
<g id="edge7" class="edge">
<title>s1&#45;&gt;s1</title>
<path fill="none" stroke="black" d="M104.21,-22.71C122.7,-24.19 141,-22.62 141,-18 141,-14.25 128.92,-12.5 114.47,-12.78"/>
<polygon fill="black" stroke="black" points="114.03,-9.3 104.21,-13.29 114.38,-16.29 114.03,-9.3"/>
<text text-anchor="middle" x="144.5" y="-14.3" font-family="Times,serif" font-size="14.00">c</text>
</g>
<!-- s1&#45;&gt;s1 -->
<g id="edge8" class="edge">
<title>s1&#45;&gt;s1</title>
<path fill="none" stroke="black" d="M103.71,-24.14C129.88,-27.76 159,-25.71 159,-18 159,-11.28 136.9,-8.86 113.91,-10.74"/>
<polygon fill="black" stroke="black" points="113.27,-7.29 103.71,-11.86 114.03,-14.25 113.27,-7.29"/>
<text text-anchor="middle" x="162.5" y="-14.3" font-family="Times,serif" font-size="14.00">a</text>
</g>
<!-- s2&#45;&gt;s3 -->
<g id="edge4" class="edge">
<title>s2&#45;&gt;s3</title>
<path fill="none" stroke="black" d="M62.46,-183.37C61.44,-171.91 60.07,-156.54 58.85,-142.9"/>
<polygon fill="black" stroke="black" points="62.34,-142.55 57.96,-132.9 55.36,-143.17 62.34,-142.55"/>
<text text-anchor="middle" x="63.5" y="-154.5" font-family="Times,serif" font-size="14.00">c</text>
</g>
<!-- s2&#45;&gt;s1 -->
<g id="edge11" class="edge">
<title>s2&#45;&gt;s1</title>
<path fill="none" stroke="black" d="M71.54,-184.35C77.34,-170.83 84.87,-150.96 88,-132.7 93.03,-103.36 88.71,-69.31 84.29,-46.17"/>
<polygon fill="black" stroke="black" points="87.65,-45.16 82.21,-36.06 80.79,-46.56 87.65,-45.16"/>
<text text-anchor="middle" x="93.5" y="-106.15" font-family="Times,serif" font-size="14.00">a</text>
</g>
<!-- s2&#45;&gt;s2 -->
<g id="edge3" class="edge">
<title>s2&#45;&gt;s2</title>
<path fill="none" stroke="black" d="M88.53,-209.45C99.51,-210.19 109,-207.6 109,-201.7 109,-197.73 104.72,-195.26 98.57,-194.29"/>
<polygon fill="black" stroke="black" points="98.65,-190.79 88.53,-193.94 98.41,-197.79 98.65,-190.79"/>
<text text-anchor="middle" x="112.5" y="-198" font-family="Times,serif" font-size="14.00">b</text>
</g>
<!-- s4&#45;&gt;s1 -->
<g id="edge15" class="edge">
<title>s4&#45;&gt;s1</title>
<path fill="none" stroke="black" d="M113.02,-271.47C117.44,-257.07 122.72,-237.46 125,-219.7 134.47,-145.83 127.33,-123.28 100,-54 98.53,-50.28 96.66,-46.51 94.63,-42.9"/>
<polygon fill="black" stroke="black" points="97.6,-41.06 89.39,-34.37 91.63,-44.72 97.6,-41.06"/>
<text text-anchor="middle" x="131.5" y="-154.5" font-family="Times,serif" font-size="14.00">c</text>
</g>
<!-- s4&#45;&gt;s2 -->
<g id="edge14" class="edge">
<title>s4&#45;&gt;s2</title>
<path fill="none" stroke="black" d="M96.68,-272.6C90.55,-259.5 82.48,-242.23 75.89,-228.14"/>
<polygon fill="black" stroke="black" points="79.02,-226.56 71.61,-218.98 72.68,-229.52 79.02,-226.56"/>
<text text-anchor="middle" x="89.5" y="-241.5" font-family="Times,serif" font-size="14.00">b</text>
</g>
<!-- s4&#45;&gt;s4 -->
<g id="edge16" class="edge">
<title>s4&#45;&gt;s4</title>
<path fill="none" stroke="black" d="M127.44,-302.33C137.75,-303.41 146.85,-300.48 146.85,-293.54 146.85,-289.1 143.11,-286.3 137.72,-285.15"/>
<polygon fill="black" stroke="black" points="137.56,-281.64 127.44,-284.76 137.3,-288.64 137.56,-281.64"/>
<text text-anchor="middle" x="150.35" y="-289.84" font-family="Times,serif" font-size="14.00">a</text>
</g>
</g>
</svg>
