<?xml version="1.0" encoding="UTF-8" standalone="no"?>
<!DOCTYPE svg PUBLIC "-//W3C//DTD SVG 1.1//EN"
 "http://www.w3.org/Graphics/SVG/1.1/DTD/svg11.dtd">
<!-- Generated by graphviz version 2.47.0 (20210316.0004)
 -->
<!-- Pages: 1 -->
<svg width="215pt" height="1616pt"
 viewBox="0.00 0.00 215.00 1616.10" xmlns="http://www.w3.org/2000/svg" xmlns:xlink="http://www.w3.org/1999/xlink">
<g id="graph0" class="graph" transform="scale(1 1) rotate(0) translate(4 1612.1)">
<polygon fill="white" stroke="transparent" points="-4,4 -4,-1612.1 211,-1612.1 211,4 -4,4"/>
<!-- fake0 -->
<g id="node1" class="node">
<title>fake0</title>
</g>
<!-- q0 -->
<g id="node20" class="node">
<title>q0</title>
<ellipse fill="none" stroke="black" cx="95" cy="-1517.1" rx="27" ry="18"/>
<text text-anchor="middle" x="95" y="-1513.4" font-family="Times,serif" font-size="14.00">q0</text>
</g>
<!-- fake0&#45;&gt;q0 -->
<g id="edge1" class="edge">
<title>fake0&#45;&gt;q0</title>
<path fill="none" stroke="black" stroke-width="2" d="M95,-1571.91C95,-1563.89 95,-1554.14 95,-1545.16"/>
<polygon fill="black" stroke="black" stroke-width="2" points="98.5,-1545.12 95,-1535.12 91.5,-1545.12 98.5,-1545.12"/>
</g>
<!-- q4 -->
<g id="node2" class="node">
<title>q4</title>
<ellipse fill="none" stroke="black" cx="95" cy="-1343.1" rx="27" ry="18"/>
<text text-anchor="middle" x="95" y="-1339.4" font-family="Times,serif" font-size="14.00">q4</text>
</g>
<!-- q7 -->
<g id="node16" class="node">
<title>q7</title>
<ellipse fill="none" stroke="black" cx="95" cy="-1256.1" rx="27" ry="18"/>
<text text-anchor="middle" x="95" y="-1252.4" font-family="Times,serif" font-size="14.00">q7</text>
</g>
<!-- q4&#45;&gt;q7 -->
<g id="edge3" class="edge">
<title>q4&#45;&gt;q7</title>
<path fill="none" stroke="black" d="M95,-1324.89C95,-1313.26 95,-1297.64 95,-1284.33"/>
<polygon fill="black" stroke="black" points="98.5,-1284.27 95,-1274.27 91.5,-1284.27 98.5,-1284.27"/>
<text text-anchor="middle" x="98.5" y="-1295.9" font-family="Times,serif" font-size="14.00">b</text>
</g>
<!-- q20 -->
<g id="node3" class="node">
<title>q20</title>
<ellipse fill="none" stroke="black" cx="59" cy="-995.1" rx="27" ry="18"/>
<text text-anchor="middle" x="59" y="-991.4" font-family="Times,serif" font-size="14.00">q20</text>
</g>
<!-- q21 -->
<g id="node9" class="node">
<title>q21</title>
<ellipse fill="none" stroke="black" cx="59" cy="-908.1" rx="27" ry="18"/>
<text text-anchor="middle" x="59" y="-904.4" font-family="Times,serif" font-size="14.00">q21</text>
</g>
<!-- q20&#45;&gt;q21 -->
<g id="edge7" class="edge">
<title>q20&#45;&gt;q21</title>
<path fill="none" stroke="black" d="M59,-976.89C59,-965.26 59,-949.64 59,-936.33"/>
<polygon fill="black" stroke="black" points="62.5,-936.27 59,-926.27 55.5,-936.27 62.5,-936.27"/>
<text text-anchor="middle" x="63.5" y="-947.9" font-family="Times,serif" font-size="14.00">E</text>
</g>
<!-- q13 -->
<g id="node4" class="node">
<title>q13</title>
<ellipse fill="none" stroke="black" cx="131" cy="-821.1" rx="27" ry="18"/>
<text text-anchor="middle" x="131" y="-817.4" font-family="Times,serif" font-size="14.00">q13</text>
</g>
<!-- q14 -->
<g id="node8" class="node">
<title>q14</title>
<ellipse fill="none" stroke="black" cx="131" cy="-734.1" rx="27" ry="18"/>
<text text-anchor="middle" x="131" y="-730.4" font-family="Times,serif" font-size="14.00">q14</text>
</g>
<!-- q13&#45;&gt;q14 -->
<g id="edge22" class="edge">
<title>q13&#45;&gt;q14</title>
<path fill="none" stroke="black" d="M131,-802.89C131,-791.26 131,-775.64 131,-762.33"/>
<polygon fill="black" stroke="black" points="134.5,-762.27 131,-752.27 127.5,-762.27 134.5,-762.27"/>
<text text-anchor="middle" x="135.5" y="-773.9" font-family="Times,serif" font-size="14.00">E</text>
</g>
<!-- q22 -->
<g id="node5" class="node">
<title>q22</title>
<ellipse fill="none" stroke="black" cx="59" cy="-821.1" rx="27" ry="18"/>
<text text-anchor="middle" x="59" y="-817.4" font-family="Times,serif" font-size="14.00">q22</text>
</g>
<!-- q23 -->
<g id="node15" class="node">
<title>q23</title>
<ellipse fill="none" stroke="black" cx="59" cy="-734.1" rx="27" ry="18"/>
<text text-anchor="middle" x="59" y="-730.4" font-family="Times,serif" font-size="14.00">q23</text>
</g>
<!-- q22&#45;&gt;q23 -->
<g id="edge13" class="edge">
<title>q22&#45;&gt;q23</title>
<path fill="none" stroke="black" d="M59,-802.89C59,-791.26 59,-775.64 59,-762.33"/>
<polygon fill="black" stroke="black" points="62.5,-762.27 59,-752.27 55.5,-762.27 62.5,-762.27"/>
<text text-anchor="middle" x="63.5" y="-773.9" font-family="Times,serif" font-size="14.00">E</text>
</g>
<!-- q11 -->
<g id="node6" class="node">
<title>q11</title>
<ellipse fill="none" stroke="black" cx="131" cy="-908.1" rx="27" ry="18"/>
<text text-anchor="middle" x="131" y="-904.4" font-family="Times,serif" font-size="14.00">q11</text>
</g>
<!-- q11&#45;&gt;q13 -->
<g id="edge15" class="edge">
<title>q11&#45;&gt;q13</title>
<path fill="none" stroke="black" d="M131,-889.89C131,-878.26 131,-862.64 131,-849.33"/>
<polygon fill="black" stroke="black" points="134.5,-849.27 131,-839.27 127.5,-849.27 134.5,-849.27"/>
<text text-anchor="middle" x="134.5" y="-860.9" font-family="Times,serif" font-size="14.00">a</text>
</g>
<!-- q2 -->
<g id="node7" class="node">
<title>q2</title>
<ellipse fill="none" stroke="black" cx="27" cy="-647.1" rx="27" ry="18"/>
<text text-anchor="middle" x="27" y="-643.4" font-family="Times,serif" font-size="14.00">q2</text>
</g>
<!-- q3 -->
<g id="node22" class="node">
<title>q3</title>
<ellipse fill="none" stroke="black" cx="27" cy="-560.1" rx="27" ry="18"/>
<text text-anchor="middle" x="27" y="-556.4" font-family="Times,serif" font-size="14.00">q3</text>
</g>
<!-- q2&#45;&gt;q3 -->
<g id="edge8" class="edge">
<title>q2&#45;&gt;q3</title>
<path fill="none" stroke="black" d="M18.4,-629.81C15.81,-624.06 13.3,-617.44 12,-611.1 10.33,-602.98 11.77,-594.29 14.31,-586.46"/>
<polygon fill="black" stroke="black" points="17.58,-587.71 17.95,-577.12 11.06,-585.16 17.58,-587.71"/>
<text text-anchor="middle" x="15.5" y="-599.9" font-family="Times,serif" font-size="14.00">b</text>
</g>
<!-- q18 -->
<g id="node12" class="node">
<title>q18</title>
<ellipse fill="none" stroke="black" cx="134" cy="-473.1" rx="27" ry="18"/>
<text text-anchor="middle" x="134" y="-469.4" font-family="Times,serif" font-size="14.00">q18</text>
</g>
<!-- q14&#45;&gt;q18 -->
<g id="edge19" class="edge">
<title>q14&#45;&gt;q18</title>
<path fill="none" stroke="black" d="M131.2,-715.7C131.71,-671.56 133.06,-554.92 133.68,-501.51"/>
<polygon fill="black" stroke="black" points="137.18,-501.46 133.8,-491.42 130.18,-501.37 137.18,-501.46"/>
<text text-anchor="middle" x="136.5" y="-599.9" font-family="Times,serif" font-size="14.00">E</text>
</g>
<!-- q12 -->
<g id="node21" class="node">
<title>q12</title>
<ellipse fill="none" stroke="black" cx="180" cy="-647.1" rx="27" ry="18"/>
<text text-anchor="middle" x="180" y="-643.4" font-family="Times,serif" font-size="14.00">q12</text>
</g>
<!-- q14&#45;&gt;q12 -->
<g id="edge18" class="edge">
<title>q14&#45;&gt;q12</title>
<path fill="none" stroke="black" d="M140.22,-717.11C147.36,-704.72 157.38,-687.33 165.58,-673.11"/>
<polygon fill="black" stroke="black" points="168.7,-674.71 170.66,-664.3 162.63,-671.22 168.7,-674.71"/>
<text text-anchor="middle" x="162.5" y="-686.9" font-family="Times,serif" font-size="14.00">E</text>
</g>
<!-- q21&#45;&gt;q22 -->
<g id="edge6" class="edge">
<title>q21&#45;&gt;q22</title>
<path fill="none" stroke="black" d="M59,-889.89C59,-878.26 59,-862.64 59,-849.33"/>
<polygon fill="black" stroke="black" points="62.5,-849.27 59,-839.27 55.5,-849.27 62.5,-849.27"/>
<text text-anchor="middle" x="62.5" y="-860.9" font-family="Times,serif" font-size="14.00">b</text>
</g>
<!-- q9 -->
<g id="node10" class="node">
<title>q9</title>
<ellipse fill="none" stroke="black" cx="59" cy="-1082.1" rx="27" ry="18"/>
<text text-anchor="middle" x="59" y="-1078.4" font-family="Times,serif" font-size="14.00">q9</text>
</g>
<!-- q9&#45;&gt;q20 -->
<g id="edge5" class="edge">
<title>q9&#45;&gt;q20</title>
<path fill="none" stroke="black" d="M59,-1063.89C59,-1052.26 59,-1036.64 59,-1023.33"/>
<polygon fill="black" stroke="black" points="62.5,-1023.27 59,-1013.27 55.5,-1023.27 62.5,-1023.27"/>
<text text-anchor="middle" x="62.5" y="-1034.9" font-family="Times,serif" font-size="14.00">a</text>
</g>
<!-- q25 -->
<g id="node11" class="node">
<title>q25</title>
<ellipse fill="none" stroke="black" cx="98" cy="-28.05" rx="24.09" ry="24.09"/>
<ellipse fill="none" stroke="black" cx="98" cy="-28.05" rx="28.1" ry="28.1"/>
<text text-anchor="middle" x="98" y="-24.35" font-family="Times,serif" font-size="14.00">q25</text>
</g>
<!-- q19 -->
<g id="node18" class="node">
<title>q19</title>
<ellipse fill="none" stroke="black" cx="98" cy="-386.1" rx="27" ry="18"/>
<text text-anchor="middle" x="98" y="-382.4" font-family="Times,serif" font-size="14.00">q19</text>
</g>
<!-- q18&#45;&gt;q19 -->
<g id="edge26" class="edge">
<title>q18&#45;&gt;q19</title>
<path fill="none" stroke="black" d="M126.89,-455.3C121.78,-443.23 114.79,-426.73 108.97,-412.99"/>
<polygon fill="black" stroke="black" points="112.1,-411.41 104.98,-403.56 105.65,-414.14 112.1,-411.41"/>
<text text-anchor="middle" x="122.5" y="-425.9" font-family="Times,serif" font-size="14.00">E</text>
</g>
<!-- q24 -->
<g id="node13" class="node">
<title>q24</title>
<ellipse fill="none" stroke="black" cx="98" cy="-125.1" rx="27" ry="18"/>
<text text-anchor="middle" x="98" y="-121.4" font-family="Times,serif" font-size="14.00">q24</text>
</g>
<!-- q24&#45;&gt;q25 -->
<g id="edge30" class="edge">
<title>q24&#45;&gt;q25</title>
<path fill="none" stroke="black" d="M98,-106.66C98,-95.47 98,-80.5 98,-66.7"/>
<polygon fill="black" stroke="black" points="101.5,-66.45 98,-56.45 94.5,-66.45 101.5,-66.45"/>
<text text-anchor="middle" x="101.5" y="-77.9" font-family="Times,serif" font-size="14.00">a</text>
</g>
<!-- q8 -->
<g id="node14" class="node">
<title>q8</title>
<ellipse fill="none" stroke="black" cx="95" cy="-1169.1" rx="27" ry="18"/>
<text text-anchor="middle" x="95" y="-1165.4" font-family="Times,serif" font-size="14.00">q8</text>
</g>
<!-- q8&#45;&gt;q9 -->
<g id="edge24" class="edge">
<title>q8&#45;&gt;q9</title>
<path fill="none" stroke="black" d="M87.89,-1151.3C82.78,-1139.23 75.79,-1122.73 69.97,-1108.99"/>
<polygon fill="black" stroke="black" points="73.1,-1107.41 65.98,-1099.56 66.65,-1110.14 73.1,-1107.41"/>
<text text-anchor="middle" x="83.5" y="-1121.9" font-family="Times,serif" font-size="14.00">E</text>
</g>
<!-- q6 -->
<g id="node26" class="node">
<title>q6</title>
<ellipse fill="none" stroke="black" cx="131" cy="-1082.1" rx="27" ry="18"/>
<text text-anchor="middle" x="131" y="-1078.4" font-family="Times,serif" font-size="14.00">q6</text>
</g>
<!-- q8&#45;&gt;q6 -->
<g id="edge23" class="edge">
<title>q8&#45;&gt;q6</title>
<path fill="none" stroke="black" d="M102.11,-1151.3C107.22,-1139.23 114.21,-1122.73 120.03,-1108.99"/>
<polygon fill="black" stroke="black" points="123.35,-1110.14 124.02,-1099.56 116.9,-1107.41 123.35,-1110.14"/>
<text text-anchor="middle" x="119.5" y="-1121.9" font-family="Times,serif" font-size="14.00">E</text>
</g>
<!-- q23&#45;&gt;q2 -->
<g id="edge10" class="edge">
<title>q23&#45;&gt;q2</title>
<path fill="none" stroke="black" d="M52.68,-716.3C48.16,-704.31 42,-687.95 36.85,-674.25"/>
<polygon fill="black" stroke="black" points="40.11,-672.98 33.31,-664.85 33.56,-675.45 40.11,-672.98"/>
<text text-anchor="middle" x="48.5" y="-686.9" font-family="Times,serif" font-size="14.00">E</text>
</g>
<!-- q5 -->
<g id="node19" class="node">
<title>q5</title>
<ellipse fill="none" stroke="black" cx="62" cy="-473.1" rx="27" ry="18"/>
<text text-anchor="middle" x="62" y="-469.4" font-family="Times,serif" font-size="14.00">q5</text>
</g>
<!-- q23&#45;&gt;q5 -->
<g id="edge9" class="edge">
<title>q23&#45;&gt;q5</title>
<path fill="none" stroke="black" d="M60.28,-716.06C61.25,-702.31 62.49,-682.47 63,-665.1 64.72,-606.72 63.6,-538.27 62.73,-501.23"/>
<polygon fill="black" stroke="black" points="66.23,-501.13 62.49,-491.22 59.23,-501.3 66.23,-501.13"/>
<text text-anchor="middle" x="67.5" y="-599.9" font-family="Times,serif" font-size="14.00">E</text>
</g>
<!-- q7&#45;&gt;q8 -->
<g id="edge27" class="edge">
<title>q7&#45;&gt;q8</title>
<path fill="none" stroke="black" d="M95,-1237.89C95,-1226.26 95,-1210.64 95,-1197.33"/>
<polygon fill="black" stroke="black" points="98.5,-1197.27 95,-1187.27 91.5,-1197.27 98.5,-1197.27"/>
<text text-anchor="middle" x="99.5" y="-1208.9" font-family="Times,serif" font-size="14.00">E</text>
</g>
<!-- q1 -->
<g id="node17" class="node">
<title>q1</title>
<ellipse fill="none" stroke="black" cx="95" cy="-1430.1" rx="27" ry="18"/>
<text text-anchor="middle" x="95" y="-1426.4" font-family="Times,serif" font-size="14.00">q1</text>
</g>
<!-- q1&#45;&gt;q4 -->
<g id="edge4" class="edge">
<title>q1&#45;&gt;q4</title>
<path fill="none" stroke="black" d="M95,-1411.89C95,-1400.26 95,-1384.64 95,-1371.33"/>
<polygon fill="black" stroke="black" points="98.5,-1371.27 95,-1361.27 91.5,-1371.27 98.5,-1371.27"/>
<text text-anchor="middle" x="99.5" y="-1382.9" font-family="Times,serif" font-size="14.00">E</text>
</g>
<!-- q15 -->
<g id="node24" class="node">
<title>q15</title>
<ellipse fill="none" stroke="black" cx="98" cy="-299.1" rx="27" ry="18"/>
<text text-anchor="middle" x="98" y="-295.4" font-family="Times,serif" font-size="14.00">q15</text>
</g>
<!-- q19&#45;&gt;q15 -->
<g id="edge29" class="edge">
<title>q19&#45;&gt;q15</title>
<path fill="none" stroke="black" d="M98,-367.89C98,-356.26 98,-340.64 98,-327.33"/>
<polygon fill="black" stroke="black" points="101.5,-327.27 98,-317.27 94.5,-327.27 101.5,-327.27"/>
<text text-anchor="middle" x="102.5" y="-338.9" font-family="Times,serif" font-size="14.00">E</text>
</g>
<!-- q5&#45;&gt;q19 -->
<g id="edge25" class="edge">
<title>q5&#45;&gt;q19</title>
<path fill="none" stroke="black" d="M69.11,-455.3C74.22,-443.23 81.21,-426.73 87.03,-412.99"/>
<polygon fill="black" stroke="black" points="90.35,-414.14 91.02,-403.56 83.9,-411.41 90.35,-414.14"/>
<text text-anchor="middle" x="86.5" y="-425.9" font-family="Times,serif" font-size="14.00">E</text>
</g>
<!-- q0&#45;&gt;q1 -->
<g id="edge2" class="edge">
<title>q0&#45;&gt;q1</title>
<path fill="none" stroke="black" d="M95,-1498.89C95,-1487.26 95,-1471.64 95,-1458.33"/>
<polygon fill="black" stroke="black" points="98.5,-1458.27 95,-1448.27 91.5,-1458.27 98.5,-1458.27"/>
<text text-anchor="middle" x="98.5" y="-1469.9" font-family="Times,serif" font-size="14.00">a</text>
</g>
<!-- q17 -->
<g id="node25" class="node">
<title>q17</title>
<ellipse fill="none" stroke="black" cx="180" cy="-560.1" rx="27" ry="18"/>
<text text-anchor="middle" x="180" y="-556.4" font-family="Times,serif" font-size="14.00">q17</text>
</g>
<!-- q12&#45;&gt;q17 -->
<g id="edge17" class="edge">
<title>q12&#45;&gt;q17</title>
<path fill="none" stroke="black" d="M174.32,-629.04C171.76,-619.41 169.61,-607.12 171,-596.1 171.34,-593.39 171.83,-590.59 172.4,-587.81"/>
<polygon fill="black" stroke="black" points="175.82,-588.56 174.73,-578.02 169.01,-586.93 175.82,-588.56"/>
<text text-anchor="middle" x="174.5" y="-599.9" font-family="Times,serif" font-size="14.00">a</text>
</g>
<!-- q3&#45;&gt;q2 -->
<g id="edge12" class="edge">
<title>q3&#45;&gt;q2</title>
<path fill="none" stroke="black" d="M27,-578.27C27,-589.9 27,-605.52 27,-618.83"/>
<polygon fill="black" stroke="black" points="23.5,-618.89 27,-628.89 30.5,-618.89 23.5,-618.89"/>
<text text-anchor="middle" x="31.5" y="-599.9" font-family="Times,serif" font-size="14.00">E</text>
</g>
<!-- q3&#45;&gt;q5 -->
<g id="edge11" class="edge">
<title>q3&#45;&gt;q5</title>
<path fill="none" stroke="black" d="M33.91,-542.3C38.88,-530.23 45.68,-513.73 51.34,-499.99"/>
<polygon fill="black" stroke="black" points="54.65,-501.14 55.22,-490.56 48.17,-498.48 54.65,-501.14"/>
<text text-anchor="middle" x="50.5" y="-512.9" font-family="Times,serif" font-size="14.00">E</text>
</g>
<!-- q10 -->
<g id="node23" class="node">
<title>q10</title>
<ellipse fill="none" stroke="black" cx="131" cy="-995.1" rx="27" ry="18"/>
<text text-anchor="middle" x="131" y="-991.4" font-family="Times,serif" font-size="14.00">q10</text>
</g>
<!-- q10&#45;&gt;q11 -->
<g id="edge16" class="edge">
<title>q10&#45;&gt;q11</title>
<path fill="none" stroke="black" d="M131,-976.89C131,-965.26 131,-949.64 131,-936.33"/>
<polygon fill="black" stroke="black" points="134.5,-936.27 131,-926.27 127.5,-936.27 134.5,-936.27"/>
<text text-anchor="middle" x="135.5" y="-947.9" font-family="Times,serif" font-size="14.00">E</text>
</g>
<!-- q16 -->
<g id="node27" class="node">
<title>q16</title>
<ellipse fill="none" stroke="black" cx="98" cy="-212.1" rx="27" ry="18"/>
<text text-anchor="middle" x="98" y="-208.4" font-family="Times,serif" font-size="14.00">q16</text>
</g>
<!-- q15&#45;&gt;q16 -->
<g id="edge28" class="edge">
<title>q15&#45;&gt;q16</title>
<path fill="none" stroke="black" d="M98,-280.89C98,-269.26 98,-253.64 98,-240.33"/>
<polygon fill="black" stroke="black" points="101.5,-240.27 98,-230.27 94.5,-240.27 101.5,-240.27"/>
<text text-anchor="middle" x="101.5" y="-251.9" font-family="Times,serif" font-size="14.00">b</text>
</g>
<!-- q17&#45;&gt;q18 -->
<g id="edge21" class="edge">
<title>q17&#45;&gt;q18</title>
<path fill="none" stroke="black" d="M171.13,-542.71C164.47,-530.4 155.23,-513.32 147.63,-499.28"/>
<polygon fill="black" stroke="black" points="150.52,-497.27 142.69,-490.15 144.37,-500.61 150.52,-497.27"/>
<text text-anchor="middle" x="163.5" y="-512.9" font-family="Times,serif" font-size="14.00">E</text>
</g>
<!-- q17&#45;&gt;q12 -->
<g id="edge20" class="edge">
<title>q17&#45;&gt;q12</title>
<path fill="none" stroke="black" d="M180,-578.27C180,-589.9 180,-605.52 180,-618.83"/>
<polygon fill="black" stroke="black" points="176.5,-618.89 180,-628.89 183.5,-618.89 176.5,-618.89"/>
<text text-anchor="middle" x="184.5" y="-599.9" font-family="Times,serif" font-size="14.00">E</text>
</g>
<!-- q6&#45;&gt;q10 -->
<g id="edge14" class="edge">
<title>q6&#45;&gt;q10</title>
<path fill="none" stroke="black" d="M131,-1063.89C131,-1052.26 131,-1036.64 131,-1023.33"/>
<polygon fill="black" stroke="black" points="134.5,-1023.27 131,-1013.27 127.5,-1023.27 134.5,-1023.27"/>
<text text-anchor="middle" x="134.5" y="-1034.9" font-family="Times,serif" font-size="14.00">b</text>
</g>
<!-- q16&#45;&gt;q24 -->
<g id="edge31" class="edge">
<title>q16&#45;&gt;q24</title>
<path fill="none" stroke="black" d="M98,-193.89C98,-182.26 98,-166.64 98,-153.33"/>
<polygon fill="black" stroke="black" points="101.5,-153.27 98,-143.27 94.5,-153.27 101.5,-153.27"/>
<text text-anchor="middle" x="102.5" y="-164.9" font-family="Times,serif" font-size="14.00">E</text>
</g>
</g>
</svg>
